<?xml version="1.0" encoding="UTF-8"?>
<svg version="1.1" xmlns="http://www.w3.org/2000/svg" width="626" height="626">
<path d="M0 0 C206.58 0 413.16 0 626 0 C626 206.58 626 413.16 626 626 C419.42 626 212.84 626 0 626 C0 419.42 0 212.84 0 0 Z " fill="#FEFEFE" transform="translate(0,0)"/>
<path d="M0 0 C12.87 0 25.74 0 39 0 C39 28.38 39 56.76 39 86 C67.25528415 87.84883736 67.25528415 87.84883736 90.4921875 76.66796875 C96.2081799 70.34483726 96.69607837 64.03737545 96.4453125 55.63671875 C95.71334751 49.65900464 93.71093818 45.50097942 89.28515625 41.41796875 C82.39667441 36.187546 75.23984764 34.97860858 66.7265625 34.68359375 C65.16542725 34.62643188 65.16542725 34.62643188 63.57275391 34.56811523 C62.26999512 34.52501221 60.96723633 34.48190918 59.625 34.4375 C55.45875 34.293125 51.2925 34.14875 47 34 C47 22.78 47 11.56 47 0 C71.59202448 -0.40536304 94.17191852 -0.48089731 114 16 C114.65742188 16.53238281 115.31484375 17.06476563 115.9921875 17.61328125 C124.49358386 25.22675399 130.10174979 37.52670175 131.29931641 48.82348633 C131.43690406 51.80613649 131.46716471 54.76439073 131.4375 57.75 C131.43137695 58.801875 131.42525391 59.85375 131.41894531 60.9375 C131.25340155 69.20959456 130.13850561 76.28450704 127 84 C126.71125 84.74765625 126.4225 85.4953125 126.125 86.265625 C121.53965473 96.66453301 113.4243035 104.01610275 104 110 C103.278125 110.48339844 102.55625 110.96679688 101.8125 111.46484375 C83.71692463 122.09599428 58.89596972 119.31706725 39 119 C39 131.87 39 144.74 39 158 C28.11 158 17.22 158 6 158 C6 145.13 6 132.26 6 119 C-8.85 119 -23.7 119 -39 119 C-29.57724057 104.1928066 -29.57724057 104.1928066 -25.91015625 98.94921875 C-23.9341339 96.08747385 -23.9341339 96.08747385 -22.74609375 93.01953125 C-21.12864841 89.59634097 -20.21890763 88.07121911 -17 86 C-9.35649765 84.74021051 -1.69850219 85.56505637 6 86 C6 71.15 6 56.3 6 41 C5.34 41 4.68 41 4 41 C3.79890625 41.64710938 3.5978125 42.29421875 3.390625 42.9609375 C1.41171155 47.2856416 -1.39329042 50.83970556 -4.25 54.625 C-5.52618638 56.33582956 -6.80222394 58.04677014 -8.078125 59.7578125 C-9.05749023 61.06540527 -9.05749023 61.06540527 -10.05664062 62.39941406 C-13.05909107 66.41726609 -16.02880833 70.45901099 -19 74.5 C-20.16648873 76.08346443 -21.33315595 77.66679739 -22.5 79.25 C-23.36625 80.425625 -23.36625 80.425625 -24.25 81.625 C-29.5 88.75 -29.5 88.75 -31.25024414 91.12524414 C-32.41620806 92.70768185 -33.58206104 94.29020131 -34.74780273 95.87280273 C-37.67431443 99.84551887 -40.60277534 103.81676994 -43.53515625 107.78515625 C-62.3710322 130.5105952 -62.3710322 130.5105952 -77.02026367 155.63818359 C-79 158 -79 158 -80.89147949 158.43638611 C-83.43526075 158.58124986 -85.93351663 158.56105212 -88.48046875 158.48828125 C-89.87245232 158.47766914 -89.87245232 158.47766914 -91.29255676 158.46684265 C-94.2583558 158.43883943 -97.22227108 158.37609033 -100.1875 158.3125 C-102.19723837 158.28742478 -104.20700632 158.26461026 -106.21679688 158.24414062 C-111.14525776 158.18899327 -116.07230946 158.10267997 -121 158 C-119.28203695 154.42043468 -117.19866893 151.51286383 -114.75 148.375 C-114.31816406 147.81941406 -113.88632813 147.26382813 -113.44140625 146.69140625 C-112.48523315 145.46204084 -111.52746817 144.23391239 -110.56835938 143.00683594 C-108.30771129 140.11416358 -106.055215 137.21517001 -103.80175781 134.31689453 C-102.59322482 132.76283246 -101.38423488 131.20912565 -100.17480469 129.65576172 C-96.76926644 125.28104017 -93.37593721 120.89760242 -90 116.5 C-85.42213804 110.53673245 -80.80617428 104.60361909 -76.18725586 98.67211914 C-71.82424758 93.06662922 -67.48602229 87.4427705 -63.16015625 81.80859375 C-61.281477 79.365971 -59.39430306 76.9305095 -57.5 74.5 C-51.92074634 67.3377953 -46.38604697 60.14077956 -40.890625 52.9140625 C-35.64811367 46.02550855 -30.3746606 39.1739 -24.9375 32.4375 C-20.24874179 26.62712943 -15.72056093 20.71212934 -11.27124023 14.71655273 C-7.58369689 9.74932586 -3.80172975 4.88793825 0 0 Z " fill="#020202" transform="translate(308,234)"/>
<path d="M0 0 C0.66 0 1.32 0 2 0 C2 11.88 2 23.76 2 36 C11.24 36 20.48 36 30 36 C29.96519531 33.56882812 29.93039062 31.13765625 29.89453125 28.6328125 C29.87114766 26.28305232 29.85292433 23.933305 29.83520508 21.58349609 C29.82010089 19.94802059 29.79961611 18.31258571 29.77368164 16.67724609 C29.73736855 14.32899976 29.72029068 11.98128795 29.70703125 9.6328125 C29.69154739 8.89942657 29.67606354 8.16604065 29.66011047 7.41043091 C29.65942383 5.34814453 29.65942383 5.34814453 30 2 C30.99 1.34 31.98 0.68 33 0 C33 12.87 33 25.74 33 39 C22.11 39 11.22 39 0 39 C0 26.13 0 13.26 0 0 Z " fill="#242424" transform="translate(314,353)"/>
<path d="M0 0 C27.53986333 -0.29612756 27.53986333 -0.29612756 39 2 C37 4 37 4 34.5625 4.1875 C32 4 32 4 29 3 C27.0079697 2.91708047 25.01326287 2.89261823 23.01953125 2.90234375 C21.97128174 2.90484131 20.92303223 2.90733887 19.84301758 2.90991211 C18.51294678 2.91901611 17.18287598 2.92812012 15.8125 2.9375 C11.584375 2.958125 7.35625 2.97875 3 3 C3 12.57 3 22.14 3 32 C4.32 32.33 5.64 32.66 7 33 C6.21625 32.979375 5.4325 32.95875 4.625 32.9375 C2.01885039 32.81315937 2.01885039 32.81315937 0 34 C0 22.78 0 11.56 0 0 Z " fill="#424242" transform="translate(355,234)"/>
<path d="M0 0 C12.54 0.33 25.08 0.66 38 1 C38 28.72 38 56.44 38 85 C37.67 85 37.34 85 37 85 C37 57.61 37 30.22 37 2 C25.78 2.33 14.56 2.66 3 3 C1.35 4.98 -0.3 6.96 -2 9 C-2.66 9 -3.32 9 -4 9 C-4.33 9.99 -4.66 10.98 -5 12 C-5.66 11.67 -6.32 11.34 -7 11 C-5.15100779 6.79774498 -2.81595186 3.94233261 0 0 Z " fill="#111111" transform="translate(307,235)"/>
<path d="M0 0 C0.66 0 1.32 0 2 0 C1.67 1.32 1.34 2.64 1 4 C5.91145542 3.88159204 10.8227151 3.75733277 15.73388672 3.62768555 C17.40409334 3.58441511 19.07434194 3.54273451 20.74462891 3.50268555 C23.14758955 3.44479149 25.55034041 3.3811526 27.953125 3.31640625 C28.69806213 3.29969376 29.44299927 3.28298126 30.21051025 3.26576233 C33.59509934 3.16938305 36.7600524 3.03929826 40 2 C39.34 3.65 38.68 5.3 38 7 C24.14 7 10.28 7 -4 7 C-2 3 -2 3 0 0 Z " fill="#252525" transform="translate(191,385)"/>
<path d="M0 0 C-1.39804768 2.9928732 -3.03608278 5.55094905 -5.01171875 8.1953125 C-5.60194824 8.9896167 -6.19217773 9.7839209 -6.80029297 10.60229492 C-7.42307129 11.4347876 -8.04584961 12.26728027 -8.6875 13.125 C-13.56049267 19.68355249 -18.38746141 26.25459582 -23 33 C-23.66 32.67 -24.32 32.34 -25 32 C-23.53433583 27.64305296 -21.2960129 24.57873289 -18.4375 21 C-13.95500607 15.3294148 -9.83457803 9.48876291 -5.8125 3.484375 C-3.89058541 0.85002655 -3.24503188 0 0 0 Z " fill="#1A1A1A" transform="translate(281,318)"/>
<path d="M0 0 C1.20809578 0.08700417 1.20809578 0.08700417 2.44059753 0.17576599 C3.2769725 0.20786667 4.11334747 0.23996735 4.97506714 0.27304077 C7.63691006 0.38290063 10.29311676 0.54224488 12.95231628 0.70310974 C14.76011078 0.78646673 16.56805788 0.86658187 18.37614441 0.94334412 C22.80001661 1.13824193 27.21949559 1.37753687 31.63981628 1.64060974 C31.30981628 2.30060974 30.97981628 2.96060974 30.63981628 3.64060974 C29.63603943 3.60918884 28.63226257 3.57776794 27.59806824 3.5453949 C23.86174315 3.43651465 20.12555711 3.36781429 16.3881073 3.3110199 C14.77295832 3.28090887 13.15797206 3.24000911 11.54338074 3.18797302 C9.21704465 3.1148944 6.8928748 3.08110094 4.56559753 3.05467224 C3.48874443 3.00822067 3.48874443 3.00822067 2.39013672 2.96083069 C-0.48705196 2.95891411 -2.69529443 3.04381002 -4.89280701 5.01628113 C-6.10130215 6.51676149 -7.23583413 8.07608431 -8.36018372 9.64060974 C-9.02018372 9.64060974 -9.68018372 9.64060974 -10.36018372 9.64060974 C-10.69018372 10.63060974 -11.02018372 11.62060974 -11.36018372 12.64060974 C-12.02018372 12.31060974 -12.68018372 11.98060974 -13.36018372 11.64060974 C-12.75981644 10.27613865 -12.06693 8.95313856 -11.36018372 7.64060974 C-11.05905167 7.06213791 -10.75791962 6.48366608 -10.44766235 5.88766479 C-7.58377433 1.10280724 -5.56645882 -0.15042889 0 0 Z " fill="#1C1C1C" transform="translate(313.3601837158203,234.35939025878906)"/>
<path d="M0 0 C4.60428934 1.31551124 8.18320388 3.09196486 12 6 C12 6.66 12 7.32 12 8 C12.99 8.33 13.98 8.66 15 9 C16.75 11.875 16.75 11.875 18 15 C17.67 15.99 17.34 16.98 17 18 C15.37032034 15.90469758 13.96438679 13.93055424 12.75 11.5625 C9.44524185 6.72338985 4.51646256 3.83882085 -1 2 C-0.67 1.34 -0.34 0.68 0 0 Z " fill="#171717" transform="translate(388,268)"/>
<path d="M0 0 C5.45348615 0.8418133 8.55352454 4.98277064 12 9 C13.2647257 10.99100383 14.12067122 12.80167806 15 15 C14.01 15 13.02 15 12 15 C10.3515625 13.171875 10.3515625 13.171875 8.625 10.75 C6.02914107 7.23925236 3.49475089 4.64753855 0 2 C0 1.34 0 0.68 0 0 Z " fill="#141414" transform="translate(417,248)"/>
<path d="M0 0 C0.99 0 1.98 0 3 0 C1.86446968 3.40659096 0.25611876 5.22042922 -2 8 C-3.2753992 9.92087562 -4.52584841 11.85856573 -5.75 13.8125 C-6.36359375 14.78832031 -6.9771875 15.76414062 -7.609375 16.76953125 C-8.06828125 17.50558594 -8.5271875 18.24164063 -9 19 C-9.66 18.67 -10.32 18.34 -11 18 C-9.63167453 14.18237194 -7.87003864 11.15890947 -5.5 7.875 C-4.8915625 7.02679688 -4.283125 6.17859375 -3.65625 5.3046875 C-3.1096875 4.54414063 -2.563125 3.78359375 -2 3 C-1.34 2.01 -0.68 1.02 0 0 Z " fill="#232323" transform="translate(284,330)"/>
<path d="M0 0 C0.66 0.66 1.32 1.32 2 2 C1.46890625 2.72445313 0.9378125 3.44890625 0.390625 4.1953125 C-3.17130784 9.07022059 -6.71404976 13.93416005 -10 19 C-10.66 18.67 -11.32 18.34 -12 18 C-11.34 16.35 -10.68 14.7 -10 13 C-9.34 13 -8.68 13 -8 13 C-7.79375 12.34 -7.5875 11.68 -7.375 11 C-5.48847129 6.88393737 -2.79432021 3.5412297 0 0 Z " fill="#1C1C1C" transform="translate(310,275)"/>
<path d="M0 0 C7.59498961 -0.26442904 14.57359158 0.39118425 22 2 C18.82516555 4.1165563 18.33300995 4.22929149 14.76953125 3.9765625 C13.96708984 3.925 13.16464844 3.8734375 12.33789062 3.8203125 C11.08782227 3.72363281 11.08782227 3.72363281 9.8125 3.625 C8.5450293 3.53992188 8.5450293 3.53992188 7.25195312 3.453125 C5.16728783 3.31179176 3.08353134 3.1571675 1 3 C0.67 2.01 0.34 1.02 0 0 Z " fill="#1A1A1A" transform="translate(365,265)"/>
<path d="M0 0 C0.66 0.33 1.32 0.66 2 1 C0.34643078 4.58273331 -1.67980703 7.80973467 -4 11 C-4.66 11 -5.32 11 -6 11 C-6.66 12.65 -7.32 14.3 -8 16 C-8.99 16 -9.98 16 -11 16 C-9.32076975 12.19866558 -6.88537166 9.02917298 -4.375 5.75 C-3.95476562 5.19570313 -3.53453125 4.64140625 -3.1015625 4.0703125 C-2.07061281 2.71133337 -1.03570089 1.35536165 0 0 Z " fill="#1D1D1D" transform="translate(294,252)"/>
<path d="M0 0 C4.3050091 -0.02483806 8.60997951 -0.04292512 12.91503906 -0.05493164 C14.37761157 -0.05994045 15.84017911 -0.06674938 17.30273438 -0.07543945 C19.41277291 -0.08765698 21.52274487 -0.09326295 23.6328125 -0.09765625 C25.53377686 -0.10551147 25.53377686 -0.10551147 27.47314453 -0.11352539 C30.747196 -0.00813747 33.78889152 0.37549774 37 1 C35 3 35 3 32.4375 3.1875 C30 3 30 3 29 2 C26.85613343 1.84141158 24.70733162 1.74870702 22.55859375 1.68359375 C21.25341797 1.64169922 19.94824219 1.59980469 18.60351562 1.55664062 C17.2148467 1.51682392 15.82617478 1.47711175 14.4375 1.4375 C13.04490817 1.39432011 11.65232972 1.350706 10.25976562 1.30664062 C6.83995199 1.20014124 3.42006237 1.09813077 0 1 C0 0.67 0 0.34 0 0 Z " fill="#0D0D0D" transform="translate(357,235)"/>
<path d="M0 0 C0.99 0.33 1.98 0.66 3 1 C-0.15107769 5.53755187 -3.04326455 7.73903295 -8 10 C-10.9375 9.75 -10.9375 9.75 -13 9 C-12.42636719 8.73316406 -11.85273438 8.46632813 -11.26171875 8.19140625 C-8.91513571 6.95529602 -6.91888027 5.54593672 -4.8125 3.9375 C-4.11769531 3.41027344 -3.42289062 2.88304687 -2.70703125 2.33984375 C-1.07033279 1.11021516 -1.07033279 1.11021516 0 0 Z " fill="#1F1F1F" transform="translate(399,310)"/>
<path d="M0 0 C0.66 0.33 1.32 0.66 2 1 C0.59808647 3.99254618 -1.03367489 6.5954611 -3 9.25 C-3.515625 9.95640625 -4.03125 10.6628125 -4.5625 11.390625 C-5.2740625 12.18726563 -5.2740625 12.18726563 -6 13 C-6.66 13 -7.32 13 -8 13 C-7.39665691 9.29496359 -5.77525763 7.14031852 -3.4375 4.25 C-2.79683594 3.45078125 -2.15617188 2.6515625 -1.49609375 1.828125 C-1.00238281 1.22484375 -0.50867188 0.6215625 0 0 Z " fill="#1B1B1B" transform="translate(233,331)"/>
<path d="M0 0 C0.99 0.66 1.98 1.32 3 2 C2.01 2.33 1.02 2.66 0 3 C-0.73323796 5.01508358 -0.73323796 5.01508358 -1 7 C-1.66 7 -2.32 7 -3 7 C-3.268125 7.78375 -3.53625 8.5675 -3.8125 9.375 C-5 12 -5 12 -8 14 C-7.46719784 9.77510398 -6.12321801 7.45919284 -3.4375 4.1875 C-2.47650391 3.00220703 -2.47650391 3.00220703 -1.49609375 1.79296875 C-1.00238281 1.20128906 -0.50867188 0.60960937 0 0 Z " fill="#1D1D1D" transform="translate(219,349)"/>
<path d="M0 0 C1.5314027 2.4025267 2.0743728 3.54260725 1.609375 6.40234375 C1.32578125 7.23894531 1.0421875 8.07554687 0.75 8.9375 C0.45996094 9.81019531 0.16992188 10.68289063 -0.12890625 11.58203125 C-1.02918442 14.08100967 -1.94364464 16.56225686 -3 19 C-3.66 18.67 -4.32 18.34 -5 18 C-4.80664062 17.3709375 -4.61328125 16.741875 -4.4140625 16.09375 C-2.7907875 10.75783615 -1.30539435 5.42240732 0 0 Z " fill="#151515" transform="translate(436,304)"/>
<path d="M0 0 C4.84419638 2.07909954 9.55639631 4.13315891 14 7 C13.34 7.66 12.68 8.32 12 9 C7.38 6.69 2.76 4.38 -2 2 C-1.34 1.34 -0.68 0.68 0 0 Z " fill="#171717" transform="translate(403,239)"/>
<path d="M0 0 C0.99 0.33 1.98 0.66 3 1 C1.59257936 4.51855159 0.33533477 5.38612834 -3 7 C-3.33 7.99 -3.66 8.98 -4 10 C-4.66 9.67 -5.32 9.34 -6 9 C-4.47291037 5.56404834 -2.40072955 2.88087546 0 0 Z " fill="#151515" transform="translate(306,237)"/>
<path d="M0 0 C0.66 0.66 1.32 1.32 2 2 C1.07038578 3.15224028 0.1309875 4.29659176 -0.8125 5.4375 C-1.59560547 6.39462891 -1.59560547 6.39462891 -2.39453125 7.37109375 C-4 9 -4 9 -7 10 C-7 9.01 -7 8.02 -7 7 C-6.34 7 -5.68 7 -5 7 C-4.34 5.68 -3.68 4.36 -3 3 C-2.34 3 -1.68 3 -1 3 C-0.67 2.01 -0.34 1.02 0 0 Z " fill="#1E1E1E" transform="translate(425,329)"/>
<path d="M0 0 C4.05281712 1.22527029 7.44360764 2.69880494 11 5 C10.01 6.485 10.01 6.485 9 8 C8.278125 7.38125 7.55625 6.7625 6.8125 6.125 C4.21618062 4.16333647 2.05328334 3.04684 -1 2 C-0.67 1.34 -0.34 0.68 0 0 Z " fill="#1F1F1F" transform="translate(388,268)"/>
<path d="M0 0 C0.99 0.33 1.98 0.66 3 1 C0.03 4.96 0.03 4.96 -3 9 C-3.66 8.67 -4.32 8.34 -5 8 C-3.62845496 5.04590299 -2.01136276 2.55991624 0 0 Z " fill="#232323" transform="translate(240,322)"/>
<path d="M0 0 C0.66 0 1.32 0 2 0 C0.34832443 3.5786304 -1.78286492 6.74820188 -4 10 C-4.66 9.67 -5.32 9.34 -6 9 C-4.4722133 5.56247993 -2.49818944 2.81046312 0 0 Z " fill="#191919" transform="translate(287,307)"/>
<path d="M0 0 C0.66 0 1.32 0 2 0 C1.42647107 3.87132028 -0.48704352 6.08172796 -3 9 C-3.66 8.67 -4.32 8.34 -5 8 C-4.21718695 6.66144944 -3.42348123 5.32926356 -2.625 4 C-2.18414062 3.2575 -1.74328125 2.515 -1.2890625 1.75 C-0.86367187 1.1725 -0.43828125 0.595 0 0 Z " fill="#141414" transform="translate(253,352)"/>
<path d="M0 0 C-2.57642867 2.11635213 -4.62505968 3.67339287 -8 4 C-8.99 3.34 -9.98 2.68 -11 2 C-9.73392393 1.46770674 -8.46189588 0.94955456 -7.1875 0.4375 C-6.47980469 0.14746094 -5.77210938 -0.14257812 -5.04296875 -0.44140625 C-3 -1 -3 -1 0 0 Z " fill="#1E1E1E" transform="translate(408,345)"/>
<path d="M0 0 C3 1 3 1 4.6875 4.0625 C5.120625 5.031875 5.55375 6.00125 6 7 C5.01 7 4.02 7 3 7 C0.8125 4 0.8125 4 -1 1 C-0.67 0.67 -0.34 0.34 0 0 Z " fill="#252525" transform="translate(426,256)"/>
<path d="M0 0 C0.66 0 1.32 0 2 0 C0.47291037 3.43595166 -1.59927045 6.11912454 -4 9 C-4.33 8.01 -4.66 7.02 -5 6 C-4.34 5.01 -3.68 4.02 -3 3 C-2.34 3 -1.68 3 -1 3 C-0.67 2.01 -0.34 1.02 0 0 Z " fill="#131313" transform="translate(303,285)"/>
<path d="M0 0 C0.66 0.33 1.32 0.66 2 1 C0.75023244 4.65316671 0.32901247 5.78065836 -3 8 C-3 3.73173127 -2.62386487 3.06117568 0 0 Z " fill="#202020" transform="translate(205,367)"/>
<path d="M0 0 C0.33 0.99 0.66 1.98 1 3 C-0.9375 6.1875 -0.9375 6.1875 -3 9 C-3.66 8.67 -4.32 8.34 -5 8 C-3.62845496 5.04590299 -2.01136276 2.55991624 0 0 Z " fill="#1D1D1D" transform="translate(281,269)"/>
<path d="M0 0 C0.66 0 1.32 0 2 0 C0.79618552 2.49361571 -0.45428722 4.68143083 -2 7 C-2.66 7 -3.32 7 -4 7 C-2.92598892 4.08482708 -2.22189824 2.22189824 0 0 Z " fill="#1C1C1C" transform="translate(236,377)"/>
<path d="M0 0 C0.66 0.66 1.32 1.32 2 2 C0.68 3.65 -0.64 5.3 -2 7 C-2.66 6.67 -3.32 6.34 -4 6 C-1.125 1.125 -1.125 1.125 0 0 Z " fill="#171717" transform="translate(294,297)"/>
<path d="M0 0 C0.66 0.99 1.32 1.98 2 3 C-0.97 5.475 -0.97 5.475 -4 8 C-3.40072174 4.64404172 -2.15377564 2.62198774 0 0 Z " fill="#202020" transform="translate(260,296)"/>
<path d="M0 0 C0.33 0.99 0.66 1.98 1 3 C-0.32 4.32 -1.64 5.64 -3 7 C-3 3 -3 3 -1.5 1.25 C-1.005 0.8375 -0.51 0.425 0 0 Z " fill="#171717" transform="translate(287,262)"/>
<path d="M0 0 C2.64 0.99 5.28 1.98 8 3 C7.01 3.66 6.02 4.32 5 5 C1.3125 3.625 1.3125 3.625 -2 2 C-1.34 1.34 -0.68 0.68 0 0 Z " fill="#1D1D1D" transform="translate(403,239)"/>
</svg>
